<svg version="1.1" x="0px" y="0px" viewBox="0 0 1000 1000" enable-background="new 0 0 1000 1000" xml:space="preserve">
<metadata> Svg Vector Icons : http://www.onlinewebfonts.com/icon </metadata>
<g><g><path d="M500,920c-9.5,0-17.5-3.3-24.1-9.8L134.7,580.9c-3.6-2.9-8.7-7.7-15-14.2c-6.4-6.6-16.5-18.5-30.4-35.8c-13.9-17.3-26.3-35.1-37.2-53.3s-20.7-40.3-29.3-66.2c-8.6-25.9-12.9-51-12.9-75.5c0-80.2,23.2-142.9,69.5-188.1c46.3-45.2,110.3-67.8,192-67.8c22.6,0,45.7,3.9,69.2,11.8c23.5,7.8,45.4,18.4,65.6,31.7c20.2,13.3,37.6,25.8,52.2,37.5s28.4,24.1,41.6,37.2c13.1-13.1,27-25.5,41.6-37.2c14.6-11.7,32-24.2,52.2-37.5c20.2-13.3,42.1-23.9,65.6-31.7C682.9,83.9,706,80,728.6,80c81.7,0,145.7,22.6,192,67.8C966.8,193,990,255.7,990,335.9c0,80.6-41.7,162.6-125.2,246.1L524.1,910.2C517.5,916.7,509.5,920,500,920L500,920z"/></g></g>
</svg>